HIERARCHY
ROOT SimulationBone
{
	OFFSET 0.000000 0.000000 0.000000
	CHANNELS 6 Xposition Yposition Zposition Zrotation Yrotation Xrotation 
	JOINT Hips
	{
		OFFSET 0.000000 0.000000 0.000000
		CHANNELS 6 Xposition Yposition Zposition Zrotation Yrotation Xrotation 
		JOINT RightUpLeg
		{
			OFFSET 0.103455 1.857827 10.548507
			CHANNELS 3 Zrotation Yrotation Xrotation
			JOINT RightLeg
			{
				OFFSET 43.500000 -0.000031 0.000008
				CHANNELS 3 Zrotation Yrotation Xrotation
				JOINT RightFoot
				{
					OFFSET 42.372192 0.000011 -0.000014
					CHANNELS 3 Zrotation Yrotation Xrotation
					JOINT RightToe
					{
						OFFSET 17.299997 -0.000002 0.000013
						CHANNELS 3 Zrotation Yrotation Xrotation
						End Site
						{
							OFFSET 0.000000 0.000000 0.000000
						}
					}
				}
			}
		}
		JOINT LeftUpLeg
		{
			OFFSET 0.103457 1.857826 -10.548499
			CHANNELS 3 Zrotation Yrotation Xrotation
			JOINT LeftLeg
			{
				OFFSET 43.500046 -0.000019 0.000015
				CHANNELS 3 Zrotation Yrotation Xrotation
				JOINT LeftFoot
				{
					OFFSET 42.372261 -0.000004 0.000013
					CHANNELS 3 Zrotation Yrotation Xrotation
					JOINT LeftToe
					{
						OFFSET 17.299992 -0.000006 0.000004
						CHANNELS 3 Zrotation Yrotation Xrotation
						End Site
						{
							OFFSET 0.000000 0.000000 0.000000
						}
					}
				}
			}
		}
		JOINT Spine
		{
			OFFSET 6.901968 -2.603730 -0.000002
			CHANNELS 3 Zrotation Yrotation Xrotation
			JOINT Spine1
			{
				OFFSET 12.588100 -0.000001 0.000009
				CHANNELS 3 Zrotation Yrotation Xrotation
				JOINT Spine2
				{
					OFFSET 12.343201 0.000005 -0.000005
					CHANNELS 3 Zrotation Yrotation Xrotation
					JOINT Neck
					{
						OFFSET 25.832893 -0.000008 -0.000006
						CHANNELS 3 Zrotation Yrotation Xrotation
						JOINT Head
						{
							OFFSET 11.766606 0.000005 0.000008
							CHANNELS 3 Zrotation Yrotation Xrotation
							End Site
							{
								OFFSET 0.000000 0.000000 0.000000
							}
						}
					}
					JOINT RightShoulder
					{
						OFFSET 19.745903 -1.480373 6.000100
						CHANNELS 3 Zrotation Yrotation Xrotation
						JOINT RightArm
						{
							OFFSET 11.284123 -0.000007 -0.000024
							CHANNELS 3 Zrotation Yrotation Xrotation
							JOINT RightForeArm
							{
								OFFSET 33.000053 0.000004 0.000036
								CHANNELS 3 Zrotation Yrotation Xrotation
								JOINT RightHand
								{
									OFFSET 25.200006 0.000021 -0.000003
									CHANNELS 3 Zrotation Yrotation Xrotation
									End Site
									{
										OFFSET 0.000000 0.000000 0.000000
									}
								}
							}
						}
					}
					JOINT LeftShoulder
					{
						OFFSET 19.746101 -1.480381 -6.000079
						CHANNELS 3 Zrotation Yrotation Xrotation
						JOINT LeftArm
						{
							OFFSET 11.284133 -0.000015 -0.000008
							CHANNELS 3 Zrotation Yrotation Xrotation
							JOINT LeftForeArm
							{
								OFFSET 33.000099 0.000016 0.000006
								CHANNELS 3 Zrotation Yrotation Xrotation
								JOINT LeftHand
								{
									OFFSET 25.199781 0.000142 0.000425
									CHANNELS 3 Zrotation Yrotation Xrotation
									End Site
									{
										OFFSET 0.000000 0.000000 0.000000
									}
								}
							}
						}
					}
				}
			}
		}
	}
}
MOTION
Frames: 5
Frame Time: 0.016667
-165.375862 0.000000 449.177284 0.000000 221.665209 0.000000 -1.449174 85.164726 -0.421000 95.690940 4.717959 176.212741 176.888540 -2.207595 -178.419376 -73.762361 2.768431 6.296999 65.672698 -6.094974 -3.412047 21.454550 0.003113 0.000016 156.396743 -6.402295 -178.621782 -41.595011 4.846946 4.475273 77.317051 -4.534203 -4.675796 21.454555 -0.003095 0.000000 11.055354 3.059693 -1.057501 12.066812 6.212879 -1.791864 11.746829 6.201802 -1.829492 3.465096 7.217455 8.207913 -19.472465 -20.999333 17.786839 -175.670881 -78.035268 -5.897228 -15.973762 51.970884 25.244055 -70.431913 -12.992890 2.405649 -2.095689 -2.364962 36.468117 179.090961 77.343882 0.588994 6.424827 -49.500183 -45.938745 -37.643163 14.813594 -1.385797 2.451366 -5.106196 -62.629692 
-166.842154 0.000000 450.108037 0.000000 220.850091 0.000000 -1.027326 85.543667 -0.296809 95.956347 4.734131 178.215478 173.970932 -1.954706 -177.033305 -76.207240 3.063538 3.929753 67.741620 -4.770246 -4.741113 21.454548 0.003106 0.000018 158.347154 -6.340851 -176.834481 -41.316079 4.146592 4.141427 78.739294 -4.214482 -4.684431 21.454554 -0.003093 -0.000000 10.813912 3.065583 -0.922866 11.590194 6.208066 -1.535453 11.270177 6.198544 -1.573059 3.038227 7.065966 7.428824 -19.519826 -21.324063 17.126860 -175.766957 -77.536985 -5.794043 -14.031406 52.266783 26.810071 -67.268507 -14.636580 2.396624 -2.952166 -4.675006 36.265138 179.416515 77.878908 0.930112 2.418428 -49.619789 -40.595526 -36.072264 15.658038 -1.409232 2.909791 -3.723914 -68.240279 
-168.315334 0.000000 451.089251 0.000000 220.097743 0.000000 -0.710337 86.098549 -0.150705 96.371938 4.722664 179.516406 171.386836 -1.852096 -176.550555 -77.506452 3.284056 1.490747 68.991200 -3.037262 -5.060907 21.454555 0.003102 0.000019 160.856911 -6.734803 -176.370374 -40.002013 3.634172 4.195833 79.517478 -4.160267 -4.550574 21.454553 -0.003090 -0.000000 10.659572 2.977641 -0.673996 11.294064 6.006739 -1.054879 10.974120 6.000127 -1.091269 2.794874 7.049807 6.840875 -19.445151 -21.153552 16.448002 -174.766769 -77.553200 -6.813744 -12.660661 53.023819 27.239989 -63.819033 -15.602380 2.318916 -3.535756 -5.868868 35.928310 179.772929 78.133384 1.297953 -0.852365 -49.607642 -34.381949 -36.189627 16.036536 -1.429971 4.028166 -2.879022 -73.400258 
-169.794738 0.000000 452.117041 0.000000 219.407054 0.000000 -0.481876 86.761753 -0.004162 96.779356 4.632943 -179.693560 169.015578 -1.832213 -176.705367 -77.768052 3.434941 -0.890995 69.844867 -1.145851 -4.763575 21.454562 0.003102 0.000018 163.634176 -7.269348 -176.801665 -38.001598 3.293754 4.449616 79.821242 -4.262051 -4.361157 21.454551 -0.003087 0.000000 10.536413 2.815610 -0.367430 11.061967 5.653361 -0.464002 10.742200 5.650325 -0.498249 2.702179 7.073692 6.407816 -19.291674 -20.677794 15.788567 -172.954247 -77.767905 -8.662769 -11.455078 53.918246 27.125445 -60.367438 -16.073336 2.214534 -3.647555 -6.216885 35.178583 -179.854649 78.295462 1.680549 -3.719129 -49.372698 -28.457561 -37.370817 16.097704 -1.461564 5.135673 -2.087734 -76.990066 
-171.279703 0.000000 453.187521 0.000000 218.776775 0.000000 -0.326855 87.465660 0.119939 97.019645 4.422046 -179.223161 166.740600 -1.796901 -177.242548 -77.096914 3.512531 -3.089846 70.707668 0.683919 -4.226623 21.454565 0.003107 0.000017 166.385198 -7.655805 -177.674121 -35.658170 3.113394 4.725133 79.819823 -4.408086 -4.196961 21.454551 -0.003088 -0.000000 10.388708 2.599349 -0.059685 10.778424 5.192881 0.123553 10.458912 5.193401 0.092101 2.729540 7.040342 6.094609 -19.097276 -20.087793 15.185114 -170.674064 -77.864746 -10.986822 -10.004663 54.603105 27.056462 -57.198305 -16.234199 2.111242 -3.094888 -5.978406 33.754951 -179.458986 78.553296 2.088004 -6.478206 -48.858845 -24.024976 -38.985769 15.990371 -1.496049 5.527076 -1.006621 -77.883553 
